<?xml version="1.0" ?><!DOCTYPE svg  PUBLIC '-//W3C//DTD SVG 1.1//EN'  'http://www.w3.org/Graphics/SVG/1.1/DTD/svg11.dtd'><svg enable-background="new 0 0 502 502" height="502px" id="Layer_1" version="1.1" viewBox="0 0 502 502" width="502px" xml:space="preserve" xmlns="http://www.w3.org/2000/svg" xmlns:xlink="http://www.w3.org/1999/xlink"><g><path d="M251,501c-66.785,0-129.568-26.002-176.783-73.217C27.003,380.568,1,317.785,1,251   S27.003,121.432,74.217,74.217C121.432,27.004,184.215,1,251,1c66.786,0,129.568,26.004,176.783,73.217   C474.998,121.432,501,184.215,501,251s-26.002,129.568-73.217,176.783S317.786,501,251,501z M251,38.037   C133.572,38.037,38.037,133.572,38.037,251S133.572,463.963,251,463.963S463.963,368.428,463.963,251S368.428,38.037,251,38.037z" fill="#333333"/><polygon fill="#079FE4" points="362.001,140 102,243.998 219.002,283 258.002,400  "/></g></svg>