<?xml version="1.0" encoding="UTF-8" standalone="no"?>
<svg width="32px" height="32px" viewBox="0 0 32 32" version="1.1" xmlns="http://www.w3.org/2000/svg" xmlns:xlink="http://www.w3.org/1999/xlink">
    <!-- Generator: Sketch 40.3 (33839) - http://www.bohemiancoding.com/sketch -->
    <title>Slice 1</title>
    <desc>Created with Sketch.</desc>
    <defs></defs>
    <g id="Page-1" stroke="none" stroke-width="1" fill="none" fill-rule="evenodd">
        <g id="cockpit_circle">
            <g id="layer1" transform="translate(0.198419, 0.198419)">
                <path d="M15.8015806,0.891451032 C11.8222094,0.891163115 8.00574027,2.47183465 5.19189991,5.285675 C2.37805956,8.09951536 0.797388028,11.9159845 0.797675944,15.8953557 C0.803671895,16.9298186 0.916644055,17.9608876 1.1347893,18.9721058 L12.8364104,18.9721058 C12.7950831,18.533308 12.8525887,16.3033853 13.0738133,10.947865 C13.3217766,4.9092302 15.8039545,2.42745218 15.8039545,2.42745218 C15.8039545,2.42745097 18.2861324,4.90801469 18.5340957,10.947865 C18.7541011,16.3033853 18.8092364,18.533308 18.7691247,18.9721058 L30.4802425,18.9721058 C30.694398,17.9604714 30.8033916,16.929407 30.8054853,15.8953557 C30.8057732,11.9159845 29.2251016,8.09951536 26.4112613,5.285675 C23.5974209,2.47183465 19.7809518,0.891163115 15.8015806,0.891451032 L15.8015806,0.891451032 Z" id="path4361" fill="#000000"></path>
                <path d="M15.8015806,7.07581287 C14.3408254,7.16454482 14.0142577,8.44035229 13.7162557,10.3875932 C13.2610268,13.383816 13.4912971,17.0562589 13.4912971,17.0562589 C13.4912971,17.0562589 13.8307491,18.1967453 15.8015806,18.2575206 C17.770584,18.1967453 18.1118641,17.0562589 18.1118641,17.0562589 C18.1118641,17.0562589 18.3421344,13.383816 17.8869055,10.3875932 C17.5870753,8.44035229 17.2623358,7.16454482 15.8015806,7.07581287 L15.8015806,7.07581287 Z" id="path4359" fill="#000000"></path>
                <path d="M26.7007779,26.1773032 C23.1012994,26.3792535 19.4120923,26.5832628 19.0278951,26.5832628 C18.4359435,26.5832628 18.2599042,26.9620267 18.2088529,27.4640308 L18.1851141,27.9958147 C18.1851129,28.0104008 18.1863284,28.0240145 18.1851141,28.0361695 L18.0806547,30.7117114 C21.3783515,30.2009729 24.4116503,28.6053791 26.7007779,26.1773032 L26.7007779,26.1773032 Z" id="path4357" fill="#000000"></path>
                <path d="M4.89288772,26.1797342 C7.18647903,28.6066321 10.2241665,30.1989952 13.5248804,30.7046456 L13.4204198,28.0362303 C13.4192042,28.0228597 13.4204198,28.0092461 13.4204198,27.9958755 L13.3990512,27.4664654 C13.3467844,26.9644614 13.1672116,26.5833236 12.5752601,26.5833236 C12.1899956,26.5833236 8.49604435,26.3813697 4.89288164,26.1797378 L4.89288772,26.1797342 Z" id="path4236" fill="#000000"></path>
                <circle id="circle4238" stroke="#000000" stroke-width="1.27628145" cx="15.8015806" cy="15.8015806" r="15.0028192"></circle>
            </g>
        </g>
    </g>
</svg>