<?xml version="1.0" encoding="UTF-8" standalone="no"?>
<svg
   xmlns:dc="http://purl.org/dc/elements/1.1/"
   xmlns:cc="http://creativecommons.org/ns#"
   xmlns:rdf="http://www.w3.org/1999/02/22-rdf-syntax-ns#"
   xmlns:svg="http://www.w3.org/2000/svg"
   xmlns="http://www.w3.org/2000/svg"
   xmlns:sodipodi="http://sodipodi.sourceforge.net/DTD/sodipodi-0.dtd"
   xmlns:inkscape="http://www.inkscape.org/namespaces/inkscape"
   version="1.1"
   x="0px"
   y="0px"
   viewBox="0 0 120 120"
   enable-background="new 0 0 100 100"
   xml:space="preserve"
   id="svg3397"
   inkscape:version="0.91 r13725"
   sodipodi:docname="glider_circle.svg"
   width="120"
   height="120"><metadata
     id="metadata3405"><rdf:RDF><cc:Work
         rdf:about=""><dc:format>image/svg+xml</dc:format><dc:type
           rdf:resource="http://purl.org/dc/dcmitype/StillImage" /><dc:title></dc:title></cc:Work></rdf:RDF></metadata><defs
     id="defs3403" /><sodipodi:namedview
     pagecolor="#ffffff"
     bordercolor="#666666"
     borderopacity="1"
     objecttolerance="10"
     gridtolerance="10"
     guidetolerance="10"
     inkscape:pageopacity="0"
     inkscape:pageshadow="2"
     inkscape:window-width="2114"
     inkscape:window-height="1344"
     id="namedview3401"
     showgrid="false"
     inkscape:zoom="3.0625"
     inkscape:cx="57.546386"
     inkscape:cy="63.853521"
     inkscape:window-x="189"
     inkscape:window-y="26"
     inkscape:window-maximized="0"
     inkscape:current-layer="svg3397" /><path
     style="fill:#000000;fill-opacity:1;fill-rule:evenodd;stroke:none;stroke-width:1px;stroke-linecap:butt;stroke-linejoin:miter;stroke-opacity:1"
     d="M 60 10.398438 A 51.659779 49.602528 0 0 0 8.3398438 60 A 51.659779 49.602528 0 0 0 60 109.60156 A 51.659779 49.602528 0 0 0 111.66016 60 A 51.659779 49.602528 0 0 0 60 10.398438 z M 60.001953 42.960938 C 60.001953 42.960937 62.044047 45.001703 62.248047 49.970703 C 62.429047 54.376703 62.474406 56.211266 62.441406 56.572266 L 87.972656 56.572266 L 108.93945 57.048828 C 108.93945 57.048828 109.88867 57.184641 109.88867 57.931641 L 109.88867 59.703125 L 91.189453 61.267578 L 75.111328 62.152344 C 75.111328 62.152344 63.302297 62.833984 62.654297 62.833984 C 62.167297 62.833984 62.022469 63.145594 61.980469 63.558594 L 61.960938 63.996094 C 61.960938 64.008094 61.961937 64.019297 61.960938 64.029297 L 61.169922 84.392578 L 67.552734 85.294922 C 67.552734 85.294922 68.576172 85.634812 68.576172 86.382812 L 68.576172 87.611328 L 61.167969 88.359375 L 60.583984 87.503906 L 60.183594 88.685547 L 60 89.039062 L 59.816406 88.685547 L 59.416016 87.503906 L 58.832031 88.361328 L 51.425781 87.611328 L 51.425781 86.382812 C 51.425781 85.634813 52.445312 85.294922 52.445312 85.294922 L 58.832031 84.392578 L 58.041016 64.029297 C 58.040016 64.018297 58.041016 64.007094 58.041016 63.996094 L 58.023438 63.560547 C 57.980438 63.147547 57.832703 62.833984 57.345703 62.833984 C 56.696703 62.833984 44.890625 62.154297 44.890625 62.154297 L 28.810547 61.267578 L 10.111328 59.703125 L 10.111328 57.933594 C 10.111328 57.184594 11.064453 57.048828 11.064453 57.048828 L 32.027344 56.572266 L 57.560547 56.572266 C 57.526547 56.211266 57.573859 54.376703 57.755859 49.970703 C 57.959859 45.002703 60.001953 42.960938 60.001953 42.960938 z M 60 46.785156 C 59.201 46.858156 59.022375 47.907766 58.859375 49.509766 C 58.610375 51.974766 58.736328 54.996094 58.736328 54.996094 C 58.736328 54.996094 58.922 55.934375 60 55.984375 C 61.077 55.934375 61.263672 54.996094 61.263672 54.996094 C 61.263672 54.996094 61.389625 51.974766 61.140625 49.509766 C 60.976625 47.907766 60.799 46.858156 60 46.785156 z "
     id="path3407" /></svg>